# xmcd
#
# Track frame offsets: 
#        150
#        15658
#        35263
#        53291
#        72198
#        92147
#        108479
#        125786
#        138142
#        158220
#        174403
#        192477
#        213885
#        230585
#        246172
#        262303
#        277601
#
# Disc length: 3925 seconds
#
# Revision: 0
# Processed by: cddbd v1.5PL3 Copyright (c) Steve Scherf et al.
# Submitted via: ExactAudioCopy v0.95a5
#
DISCID=e90f5311
DTITLE=Various Artist - Especial Sertanejo 2004
DYEAR=2004
DGENRE=Country
TTITLE0=Leonardo - Era só pra ficar
TTITLE1=Gian and Giovani - A gente não consegue se amar
TTITLE2=Matogrosso and Mathias - Tentei te esquecer
TTITLE3=Rick and Renner - Sem direção
TTITLE4=Bruno and Marrone - Se não tivesse ido
TTITLE5=Marcos and Fernando - Amor sem juízo
TTITLE6=Zezé di Camargo and Luciano - Pra mudar minha vida
TTITLE7=Edson and Hudson - A força da paixão
TTITLE8=Guilherme and Santiago - Dona do meu coração
TTITLE9=Leonardo - Mulher bandida
TTITLE10=Milionário and José Rico - Você vai ver
TTITLE11=Bruno and Marrone - Será
TTITLE12=Di Paulo and Paulino - O que é que eu sou sem você
TTITLE13=Leonardo - Metade do meu coração
TTITLE14=Zezé di Camargo and Luciano - Pra sempre
TTITLE15=Edson and Hudson - Deixa eu te amar
TTITLE16=Bruno and Marrone - Deixa
EXTD=
EXTT0=
EXTT1=
EXTT2=
EXTT3=
EXTT4=
EXTT5=
EXTT6=
EXTT7=
EXTT8=
EXTT9=
EXTT10=
EXTT11=
EXTT12=
EXTT13=
EXTT14=
EXTT15=
EXTT16=
PLAYORDER=
